<mxfile host="app.diagrams.net" modified="2023-06-08T20:52:57.950Z" agent="Mozilla/5.0 (Windows NT 10.0; Win64; x64) AppleWebKit/537.36 (KHTML, like Gecko) Chrome/114.0.0.0 Safari/537.36" etag="wJKGiCtIJpJztxekdcF_" version="21.3.2" type="device">
  <diagram name="Page-1" id="b5b7bab2-c9e2-2cf4-8b2a-24fd1a2a6d21">
    <mxGraphModel dx="607" dy="764" grid="1" gridSize="10" guides="1" tooltips="1" connect="1" arrows="1" fold="1" page="1" pageScale="1" pageWidth="827" pageHeight="1169" background="none" math="0" shadow="0">
      <root>
        <mxCell id="0" />
        <mxCell id="1" parent="0" />
        <mxCell id="wRR1Uj6syd41ZtCw54oC-5" value="root" style="shape=folder;fontStyle=1;tabWidth=110;tabHeight=30;tabPosition=left;html=1;boundedLbl=1;labelInHeader=1;container=1;collapsible=0;whiteSpace=wrap;fillColor=#b1ddf0;strokeColor=#000000;" vertex="1" parent="1">
          <mxGeometry x="1030" width="730" height="810" as="geometry" />
        </mxCell>
        <mxCell id="wRR1Uj6syd41ZtCw54oC-6" value="" style="html=1;strokeColor=none;resizeWidth=1;resizeHeight=1;fillColor=none;part=1;connectable=0;allowArrows=0;deletable=0;whiteSpace=wrap;" vertex="1" parent="wRR1Uj6syd41ZtCw54oC-5">
          <mxGeometry width="677.2289156626506" height="567" relative="1" as="geometry">
            <mxPoint y="30" as="offset" />
          </mxGeometry>
        </mxCell>
        <mxCell id="wRR1Uj6syd41ZtCw54oC-53" value="" style="shape=folder;fontStyle=1;tabWidth=110;tabHeight=30;tabPosition=left;html=1;boundedLbl=1;labelInHeader=1;container=1;collapsible=0;whiteSpace=wrap;fillColor=#b1ddf0;strokeColor=#000000;" vertex="1" parent="1">
          <mxGeometry x="1310" y="40" width="210" height="180" as="geometry" />
        </mxCell>
        <mxCell id="wRR1Uj6syd41ZtCw54oC-54" value="" style="html=1;strokeColor=none;resizeWidth=1;resizeHeight=1;fillColor=none;part=1;connectable=0;allowArrows=0;deletable=0;whiteSpace=wrap;" vertex="1" parent="wRR1Uj6syd41ZtCw54oC-53">
          <mxGeometry width="210" height="126.00000000000001" relative="1" as="geometry">
            <mxPoint y="30" as="offset" />
          </mxGeometry>
        </mxCell>
        <mxCell id="wRR1Uj6syd41ZtCw54oC-24" value="Presentation layer" style="text;html=1;align=center;verticalAlign=middle;resizable=0;points=[];autosize=1;strokeColor=none;fillColor=none;fontStyle=1;fontSize=15;" vertex="1" parent="wRR1Uj6syd41ZtCw54oC-53">
          <mxGeometry x="30" y="30" width="150" height="30" as="geometry" />
        </mxCell>
        <mxCell id="wRR1Uj6syd41ZtCw54oC-17" value="route" style="shape=folder;fontStyle=1;tabWidth=110;tabHeight=30;tabPosition=left;html=1;boundedLbl=1;labelInHeader=1;container=1;collapsible=0;whiteSpace=wrap;fillColor=#b1ddf0;strokeColor=#000000;" vertex="1" parent="wRR1Uj6syd41ZtCw54oC-53">
          <mxGeometry x="30.000000000000227" y="60" width="149.22" height="100" as="geometry" />
        </mxCell>
        <mxCell id="wRR1Uj6syd41ZtCw54oC-18" value="Routes" style="html=1;strokeColor=none;resizeWidth=1;resizeHeight=1;fillColor=none;part=1;connectable=0;allowArrows=0;deletable=0;whiteSpace=wrap;" vertex="1" parent="wRR1Uj6syd41ZtCw54oC-17">
          <mxGeometry width="149.22" height="70.00000000000001" relative="1" as="geometry">
            <mxPoint y="30" as="offset" />
          </mxGeometry>
        </mxCell>
        <mxCell id="wRR1Uj6syd41ZtCw54oC-35" value="" style="shape=folder;fontStyle=1;tabWidth=110;tabHeight=30;tabPosition=left;html=1;boundedLbl=1;labelInHeader=1;container=1;collapsible=0;whiteSpace=wrap;fillColor=#b1ddf0;strokeColor=#000000;" vertex="1" parent="1">
          <mxGeometry x="1209.9999999999998" y="480" width="410" height="320" as="geometry" />
        </mxCell>
        <mxCell id="wRR1Uj6syd41ZtCw54oC-36" value="" style="html=1;strokeColor=none;resizeWidth=1;resizeHeight=1;fillColor=none;part=1;connectable=0;allowArrows=0;deletable=0;whiteSpace=wrap;" vertex="1" parent="wRR1Uj6syd41ZtCw54oC-35">
          <mxGeometry width="410" height="231.11111111111114" relative="1" as="geometry">
            <mxPoint y="30" as="offset" />
          </mxGeometry>
        </mxCell>
        <mxCell id="wRR1Uj6syd41ZtCw54oC-28" value="Data layer" style="text;html=1;align=center;verticalAlign=middle;resizable=0;points=[];autosize=1;strokeColor=none;fillColor=none;fontStyle=1;fontSize=15;" vertex="1" parent="wRR1Uj6syd41ZtCw54oC-35">
          <mxGeometry x="155.00000000000034" y="30.00333333333331" width="100" height="30" as="geometry" />
        </mxCell>
        <mxCell id="wRR1Uj6syd41ZtCw54oC-15" value="repository" style="shape=folder;fontStyle=1;tabWidth=110;tabHeight=30;tabPosition=left;html=1;boundedLbl=1;labelInHeader=1;container=1;collapsible=0;whiteSpace=wrap;fillColor=#b1ddf0;strokeColor=#000000;" vertex="1" parent="wRR1Uj6syd41ZtCw54oC-35">
          <mxGeometry x="114.11000000000035" y="66.71000000000004" width="151" height="100" as="geometry" />
        </mxCell>
        <mxCell id="wRR1Uj6syd41ZtCw54oC-16" value="AppRepository" style="html=1;strokeColor=none;resizeWidth=1;resizeHeight=1;fillColor=none;part=1;connectable=0;allowArrows=0;deletable=0;whiteSpace=wrap;" vertex="1" parent="wRR1Uj6syd41ZtCw54oC-15">
          <mxGeometry width="150.99999999999997" height="70.00000000000001" relative="1" as="geometry">
            <mxPoint y="30" as="offset" />
          </mxGeometry>
        </mxCell>
        <mxCell id="wRR1Uj6syd41ZtCw54oC-11" value="database" style="shape=folder;fontStyle=1;tabWidth=110;tabHeight=30;tabPosition=left;html=1;boundedLbl=1;labelInHeader=1;container=1;collapsible=0;whiteSpace=wrap;fillColor=#b1ddf0;strokeColor=#000000;" vertex="1" parent="wRR1Uj6syd41ZtCw54oC-35">
          <mxGeometry x="29.500000000000227" y="196.70000000000005" width="151" height="96.57" as="geometry" />
        </mxCell>
        <mxCell id="wRR1Uj6syd41ZtCw54oC-12" value="MongoDBClient" style="html=1;strokeColor=none;resizeWidth=1;resizeHeight=1;fillColor=none;part=1;connectable=0;allowArrows=0;deletable=0;whiteSpace=wrap;" vertex="1" parent="wRR1Uj6syd41ZtCw54oC-11">
          <mxGeometry width="150.99999999999997" height="67.59900000000002" relative="1" as="geometry">
            <mxPoint y="30" as="offset" />
          </mxGeometry>
        </mxCell>
        <mxCell id="wRR1Uj6syd41ZtCw54oC-13" value="model" style="shape=folder;fontStyle=1;tabWidth=110;tabHeight=30;tabPosition=left;html=1;boundedLbl=1;labelInHeader=1;container=1;collapsible=0;whiteSpace=wrap;fillColor=#b1ddf0;strokeColor=#000000;" vertex="1" parent="wRR1Uj6syd41ZtCw54oC-35">
          <mxGeometry x="229.50000000000023" y="196.70000000000005" width="151" height="96.58" as="geometry" />
        </mxCell>
        <mxCell id="wRR1Uj6syd41ZtCw54oC-14" value="AppModel" style="html=1;strokeColor=none;resizeWidth=1;resizeHeight=1;fillColor=none;part=1;connectable=0;allowArrows=0;deletable=0;whiteSpace=wrap;" vertex="1" parent="wRR1Uj6syd41ZtCw54oC-13">
          <mxGeometry width="151" height="67.606" relative="1" as="geometry">
            <mxPoint y="30" as="offset" />
          </mxGeometry>
        </mxCell>
        <mxCell id="wRR1Uj6syd41ZtCw54oC-47" value="" style="endArrow=open;startArrow=none;endFill=0;startFill=0;endSize=8;html=1;verticalAlign=bottom;dashed=1;labelBackgroundColor=none;rounded=0;exitX=0;exitY=0;exitDx=151;exitDy=65;exitPerimeter=0;edgeStyle=orthogonalEdgeStyle;" edge="1" parent="wRR1Uj6syd41ZtCw54oC-35" source="wRR1Uj6syd41ZtCw54oC-15">
          <mxGeometry width="160" relative="1" as="geometry">
            <mxPoint x="299.5" y="106.71000000000004" as="sourcePoint" />
            <mxPoint x="299.5" y="176.71000000000004" as="targetPoint" />
          </mxGeometry>
        </mxCell>
        <mxCell id="wRR1Uj6syd41ZtCw54oC-48" value="" style="endArrow=open;startArrow=none;endFill=0;startFill=0;endSize=8;html=1;verticalAlign=bottom;dashed=1;labelBackgroundColor=none;rounded=0;exitX=0;exitY=0;exitDx=0;exitDy=65;exitPerimeter=0;edgeStyle=orthogonalEdgeStyle;" edge="1" parent="wRR1Uj6syd41ZtCw54oC-35" source="wRR1Uj6syd41ZtCw54oC-15">
          <mxGeometry width="160" relative="1" as="geometry">
            <mxPoint x="-90.49999999999977" y="126.71000000000004" as="sourcePoint" />
            <mxPoint x="79.5" y="176.71000000000004" as="targetPoint" />
          </mxGeometry>
        </mxCell>
        <mxCell id="wRR1Uj6syd41ZtCw54oC-33" value="" style="shape=folder;fontStyle=1;tabWidth=110;tabHeight=30;tabPosition=left;html=1;boundedLbl=1;labelInHeader=1;container=1;collapsible=0;whiteSpace=wrap;fillColor=#b1ddf0;strokeColor=#000000;" vertex="1" parent="1">
          <mxGeometry x="1210" y="260" width="410" height="180" as="geometry" />
        </mxCell>
        <mxCell id="wRR1Uj6syd41ZtCw54oC-34" value="" style="html=1;strokeColor=none;resizeWidth=1;resizeHeight=1;fillColor=none;part=1;connectable=0;allowArrows=0;deletable=0;whiteSpace=wrap;" vertex="1" parent="wRR1Uj6syd41ZtCw54oC-33">
          <mxGeometry width="410" height="126.00000000000001" relative="1" as="geometry">
            <mxPoint y="30" as="offset" />
          </mxGeometry>
        </mxCell>
        <mxCell id="wRR1Uj6syd41ZtCw54oC-19" value="service" style="shape=folder;fontStyle=1;tabWidth=110;tabHeight=30;tabPosition=left;html=1;boundedLbl=1;labelInHeader=1;container=1;collapsible=0;whiteSpace=wrap;fillColor=#b1ddf0;strokeColor=#000000;" vertex="1" parent="wRR1Uj6syd41ZtCw54oC-33">
          <mxGeometry x="45.88999999999987" y="72.5" width="149.22" height="93.75" as="geometry" />
        </mxCell>
        <mxCell id="wRR1Uj6syd41ZtCw54oC-20" value="AppService" style="html=1;strokeColor=none;resizeWidth=1;resizeHeight=1;fillColor=none;part=1;connectable=0;allowArrows=0;deletable=0;whiteSpace=wrap;" vertex="1" parent="wRR1Uj6syd41ZtCw54oC-19">
          <mxGeometry width="149.22" height="65.62500000000001" relative="1" as="geometry">
            <mxPoint y="30" as="offset" />
          </mxGeometry>
        </mxCell>
        <mxCell id="wRR1Uj6syd41ZtCw54oC-26" value="Business layer" style="text;html=1;align=center;verticalAlign=middle;resizable=0;points=[];autosize=1;strokeColor=none;fillColor=none;fontStyle=1;fontSize=15;" vertex="1" parent="wRR1Uj6syd41ZtCw54oC-33">
          <mxGeometry x="139.99999999999974" y="30" width="130" height="30" as="geometry" />
        </mxCell>
        <mxCell id="wRR1Uj6syd41ZtCw54oC-29" value="service" style="shape=folder;fontStyle=1;tabWidth=110;tabHeight=30;tabPosition=left;html=1;boundedLbl=1;labelInHeader=1;container=1;collapsible=0;whiteSpace=wrap;fillColor=#b1ddf0;strokeColor=#000000;" vertex="1" parent="wRR1Uj6syd41ZtCw54oC-33">
          <mxGeometry x="225.88999999999987" y="70" width="149.22" height="93.75" as="geometry" />
        </mxCell>
        <mxCell id="wRR1Uj6syd41ZtCw54oC-30" value="KafkaService" style="html=1;strokeColor=none;resizeWidth=1;resizeHeight=1;fillColor=none;part=1;connectable=0;allowArrows=0;deletable=0;whiteSpace=wrap;" vertex="1" parent="wRR1Uj6syd41ZtCw54oC-29">
          <mxGeometry width="149.22" height="65.62500000000001" relative="1" as="geometry">
            <mxPoint y="30" as="offset" />
          </mxGeometry>
        </mxCell>
        <mxCell id="wRR1Uj6syd41ZtCw54oC-49" value="" style="html=1;endArrow=open;endSize=12;dashed=1;verticalAlign=bottom;rounded=0;exitX=0.5;exitY=1;exitDx=0;exitDy=0;exitPerimeter=0;" edge="1" parent="1" source="wRR1Uj6syd41ZtCw54oC-33" target="wRR1Uj6syd41ZtCw54oC-35">
          <mxGeometry width="160" relative="1" as="geometry">
            <mxPoint x="1434" y="230" as="sourcePoint" />
            <mxPoint x="1434" y="290" as="targetPoint" />
          </mxGeometry>
        </mxCell>
        <mxCell id="wRR1Uj6syd41ZtCw54oC-61" value="" style="html=1;endArrow=open;endSize=12;dashed=1;verticalAlign=bottom;rounded=0;exitX=0.5;exitY=1;exitDx=0;exitDy=0;exitPerimeter=0;" edge="1" parent="1" source="wRR1Uj6syd41ZtCw54oC-53" target="wRR1Uj6syd41ZtCw54oC-33">
          <mxGeometry width="160" relative="1" as="geometry">
            <mxPoint x="1431" y="450" as="sourcePoint" />
            <mxPoint x="1420" y="250" as="targetPoint" />
          </mxGeometry>
        </mxCell>
        <mxCell id="wRR1Uj6syd41ZtCw54oC-62" value="" style="shape=folder;fontStyle=1;tabWidth=110;tabHeight=30;tabPosition=left;html=1;boundedLbl=1;labelInHeader=1;container=1;collapsible=0;whiteSpace=wrap;fillColor=#b1ddf0;strokeColor=#000000;" vertex="1" parent="1">
          <mxGeometry x="1600.0000000000002" y="100" width="149.22" height="100" as="geometry" />
        </mxCell>
        <mxCell id="wRR1Uj6syd41ZtCw54oC-63" value="Config" style="html=1;strokeColor=none;resizeWidth=1;resizeHeight=1;fillColor=none;part=1;connectable=0;allowArrows=0;deletable=0;whiteSpace=wrap;" vertex="1" parent="wRR1Uj6syd41ZtCw54oC-62">
          <mxGeometry width="149.22" height="70.00000000000001" relative="1" as="geometry">
            <mxPoint y="30" as="offset" />
          </mxGeometry>
        </mxCell>
        <mxCell id="wRR1Uj6syd41ZtCw54oC-64" value="" style="shape=folder;fontStyle=1;tabWidth=110;tabHeight=30;tabPosition=left;html=1;boundedLbl=1;labelInHeader=1;container=1;collapsible=0;whiteSpace=wrap;fillColor=#b1ddf0;strokeColor=#000000;" vertex="1" parent="1">
          <mxGeometry x="1040.0000000000002" y="100" width="149.22" height="100" as="geometry" />
        </mxCell>
        <mxCell id="wRR1Uj6syd41ZtCw54oC-65" value="App" style="html=1;strokeColor=none;resizeWidth=1;resizeHeight=1;fillColor=none;part=1;connectable=0;allowArrows=0;deletable=0;whiteSpace=wrap;" vertex="1" parent="wRR1Uj6syd41ZtCw54oC-64">
          <mxGeometry width="149.22" height="70.00000000000001" relative="1" as="geometry">
            <mxPoint y="30" as="offset" />
          </mxGeometry>
        </mxCell>
        <mxCell id="wRR1Uj6syd41ZtCw54oC-66" value="" style="html=1;endArrow=open;endSize=12;dashed=1;verticalAlign=bottom;rounded=0;exitX=0;exitY=0;exitDx=149.22;exitDy=65;exitPerimeter=0;entryX=-0.019;entryY=0.706;entryDx=0;entryDy=0;entryPerimeter=0;" edge="1" parent="1" source="wRR1Uj6syd41ZtCw54oC-64" target="wRR1Uj6syd41ZtCw54oC-53">
          <mxGeometry width="160" relative="1" as="geometry">
            <mxPoint x="1425" y="230" as="sourcePoint" />
            <mxPoint x="1425" y="270" as="targetPoint" />
          </mxGeometry>
        </mxCell>
        <mxCell id="wRR1Uj6syd41ZtCw54oC-67" value="" style="html=1;endArrow=open;endSize=12;dashed=1;verticalAlign=bottom;rounded=0;exitX=0;exitY=0;exitDx=210;exitDy=105;exitPerimeter=0;entryX=0;entryY=0;entryDx=0;entryDy=65;entryPerimeter=0;" edge="1" parent="1" source="wRR1Uj6syd41ZtCw54oC-53" target="wRR1Uj6syd41ZtCw54oC-62">
          <mxGeometry width="160" relative="1" as="geometry">
            <mxPoint x="1199" y="175" as="sourcePoint" />
            <mxPoint x="1316" y="177" as="targetPoint" />
          </mxGeometry>
        </mxCell>
        <mxCell id="wRR1Uj6syd41ZtCw54oC-68" value="" style="html=1;endArrow=open;endSize=12;dashed=1;verticalAlign=bottom;rounded=0;exitX=0;exitY=0;exitDx=410;exitDy=30;exitPerimeter=0;entryX=0.25;entryY=1;entryDx=0;entryDy=0;entryPerimeter=0;edgeStyle=orthogonalEdgeStyle;" edge="1" parent="1" source="wRR1Uj6syd41ZtCw54oC-33" target="wRR1Uj6syd41ZtCw54oC-62">
          <mxGeometry width="160" relative="1" as="geometry">
            <mxPoint x="1530" y="155" as="sourcePoint" />
            <mxPoint x="1610" y="175" as="targetPoint" />
          </mxGeometry>
        </mxCell>
        <mxCell id="wRR1Uj6syd41ZtCw54oC-69" value="" style="html=1;endArrow=open;endSize=12;dashed=1;verticalAlign=bottom;rounded=0;exitX=0;exitY=0;exitDx=410;exitDy=102.5;exitPerimeter=0;entryX=0.5;entryY=1;entryDx=0;entryDy=0;entryPerimeter=0;edgeStyle=orthogonalEdgeStyle;" edge="1" parent="1" source="wRR1Uj6syd41ZtCw54oC-35" target="wRR1Uj6syd41ZtCw54oC-62">
          <mxGeometry width="160" relative="1" as="geometry">
            <mxPoint x="1540" y="165" as="sourcePoint" />
            <mxPoint x="1620" y="185" as="targetPoint" />
          </mxGeometry>
        </mxCell>
      </root>
    </mxGraphModel>
  </diagram>
</mxfile>
